<?xml version="1.0" encoding="utf-8"?>
<!-- Generator: Adobe Illustrator 28.1.0, SVG Export Plug-In . SVG Version: 6.00 Build 0)  -->
<svg version="1.1" id="Слой_1" xmlns="http://www.w3.org/2000/svg" xmlns:xlink="http://www.w3.org/1999/xlink" x="0px" y="0px"
	 viewBox="0 0 39.3 31" style="enable-background:new 0 0 39.3 31;" xml:space="preserve">
<style type="text/css">
	.st0{fill:#6C6C6C;}
</style>
<g>
	<g>
		<path class="st0" d="M20.4,3.9h9.9c0.6-0.2,1.2-0.4,1.9-0.4c0.6,0,1.2,0.1,1.7,0.3c0,0,0.1,0,0.1,0c0.4,0,0.8,0,1.1,0.1
			c0.3-0.1,0.6-0.2,0.9-0.2V0.5C36,0.2,35.8,0,35.5,0L19,0c-0.1,0-0.3,0.1-0.4,0.1l-4.1,4.1c-0.1,0.1-0.1,0.2-0.1,0.4v3.3h-2.9
			c-0.2,0-0.3,0.1-0.4,0.2l-2.8,3.8H2.3c-0.3,0-0.5,0.2-0.5,0.5v6.4c0,0.3,0.2,0.5,0.5,0.5h4.4V22H4.4c-1.2,0-2.3,0.5-3.1,1.3
			c-0.8,0.9-1.3,2-1.3,3.2c0,1.2,0.5,2.3,1.3,3.2c0.8,0.8,2,1.3,3.1,1.3h14.2c1.2,0,2.3-0.5,3.1-1.3c0.8-0.9,1.3-2,1.3-3.2
			c0-1.2-0.5-2.3-1.3-3.2c-0.8-0.8-2-1.3-3.1-1.3h-2.2v-2.6h4.4c0.3,0,0.5-0.2,0.5-0.5V8.4c0-0.3-0.2-0.5-0.5-0.5h-2.5V6L20.4,3.9z
			 M33.2,1H35l0,1.9h-1.8V1z M32.2,1v1.9H20.5L19.8,1H32.2z M15.5,5.4l1.8,0.8v1.8h-1.8L15.5,5.4z M16.4,24.1V23l2.2,0
			c0.9,0,1.8,0.4,2.4,1c0.6,0.7,1,1.6,1,2.5c0,0.9-0.4,1.8-1,2.5c-0.6,0.7-1.5,1-2.4,1h-1.9v-1.3c0-0.7-1-0.7-1,0V30h-1.4v-1.3
			c0-0.7-1-0.7-1,0V30H12v-1.3c0-0.7-1-0.7-1,0V30H9.7v-1.3c0-0.7-1-0.7-1,0V30H7.3v-1.3c0-0.7-1-0.7-1,0V30H4.4
			c-0.9,0-1.8-0.4-2.4-1c-0.6-0.7-1-1.6-1-2.5c0-0.9,0.4-1.8,1-2.5c0.6-0.7,1.5-1,2.4-1h2.2v1.1c0,0.7,1,0.7,1,0V23h1.2v1.1
			c0,0.7,1,0.7,1,0V23H11v1.1c0,0.7,1,0.7,1,0V23h1.2v1.1c0,0.7,1,0.7,1,0V23h1.2v1.1C15.4,24.8,16.4,24.8,16.4,24.1z M7.7,22v-2.6
			h7.7V22H7.7z M20.3,15.4h-7v-3.5h7V15.4z M20.3,8.9v2h-7.5c-0.3,0-0.5,0.2-0.5,0.5v4.5c0,0.3,0.2,0.5,0.5,0.5h7.5v2H2.8V13h5.8
			c0.2,0,0.3-0.1,0.4-0.2l2.8-3.8H20.3z M17.7,5.2l-1.8-0.8l3-3.1l0.8,1.9L17.7,5.2z"/>
	</g>
</g>
<g>
	<path class="st0" d="M28.9,7c0.2,0.9,1,1.5,1.9,1.5h1.3v3.9c0,0.7,0.6,1.3,1.3,1.3V19c-1.9,0.2-3.2,1.3-3.2,2.6
		c0,1.3,1.4,2.4,3.2,2.6v5.3c0,0,0,0,0,0.1c0,0.4,0.3,0.6,0.7,0.6c0.4,0,0.6-0.3,0.6-0.7v-1.3c1.9-0.2,3.2-1.3,3.2-2.6
		c0-1.3-1.4-2.4-3.2-2.6v-2.7c1.9-0.2,3.2-1.3,3.2-2.6c0-1.3-1.4-2.4-3.2-2.6v-1.3c0.7,0,1.3-0.6,1.3-1.3V8.6h1.3c1.1,0,2-0.9,2-2
		V5.3c0-1.1-0.9-2-2-2h-2.6v0c0,0-0.1,0-0.1,0c-0.2,0-0.4,0-0.6,0c-0.2,0-0.4,0-0.5,0v0h-2c0,0,0,0,0,0c0,0-0.1,0-0.1,0
		c-0.1,0-0.1,0-0.2,0c0,0,0,0,0,0c-0.1,0-0.2,0-0.2,0c-0.1,0-0.2,0-0.3,0c0,0,0,0,0,0c-0.1,0.1-0.2,0.1-0.4,0.1c0,0,0,0,0,0
		c-0.7,0.3-1.2,0.9-1.3,1.7 M33.4,22.9c-1.1-0.2-2-0.7-2-1.3c0-0.5,0.8-1.1,2-1.3V22.9z M36.7,25.5c0,0.5-0.8,1.1-2,1.3v-2.5
		C35.9,24.4,36.7,25,36.7,25.5z M36.7,17.7c0,0.5-0.8,1.1-2,1.3v-2.5C35.9,16.6,36.7,17.2,36.7,17.7z M34.7,12.5h-1.3V8.6h1.3V12.5z
		 M38,6.6c0,0.4-0.3,0.7-0.7,0.7h-6.5c-0.4,0-0.6-0.3-0.6-0.7V5.3c0-0.4,0.3-0.7,0.6-0.7h6.5c0.4,0,0.7,0.3,0.7,0.7V6.6z"/>
</g>
</svg>
