<svg xmlns="http://www.w3.org/2000/svg" width="36" height="31" viewBox="0 0 36 31">
    <g>
        <g>
            <path fill="#6c6c6c"
                  d="M35.508 0A.495.495 0 0 1 36 .498V25.75c0 .277-.22.502-.492.502h-7.242a.496.496 0 0 1-.425-.247l-2.813-4.869a.538.538 0 0 1-.067-.254v-2.446c0-.277.22-.502.492-.502h.093c1.203.001 2.178.995 2.18 2.22v.226h4.477V3.866H20.404l-2.123 2.16v1.919h2.531c.273 0 .494.226.493.504V18.87c0 .276-.22.501-.493.501h-4.41v2.595h2.248c1.176 0 2.304.476 3.136 1.323a4.56 4.56 0 0 1 1.299 3.194 4.559 4.559 0 0 1-1.3 3.193A4.395 4.395 0 0 1 18.65 31H4.435A4.396 4.396 0 0 1 1.3 29.677 4.559 4.559 0 0 1 0 26.484a4.56 4.56 0 0 1 1.299-3.194 4.396 4.396 0 0 1 3.136-1.323h2.25v-2.595H2.272a.497.497 0 0 1-.492-.501V12.45c0-.277.22-.502.492-.501H8.33l2.819-3.804a.49.49 0 0 1 .394-.2h2.941V4.637c0-.136.053-.265.146-.361L18.683.149a.505.505 0 0 1 .355-.15zm-20.04 7.945h1.829v-1.79l-1.828-.773zm.935 15.024v1.149c0 .668-.985.668-.985 0v-1.149h-1.201v1.149c0 .668-.984.668-.984 0v-1.149h-1.198v1.149c0 .668-.985.668-.985 0v-1.149H9.852v1.149c0 .668-.984.668-.984 0v-1.149H7.669v1.149c0 .668-.984.668-.984 0v-1.149h-2.25A3.42 3.42 0 0 0 1.995 24a3.548 3.548 0 0 0-1.01 2.485c0 .931.363 1.825 1.01 2.484a3.42 3.42 0 0 0 2.44 1.03h1.913v-1.275c0-.668.984-.668.984 0v1.275H8.7v-1.275c0-.668.984-.668.984 0v1.275h1.367v-1.275c0-.668.985-.668.985 0v1.275H13.4v-1.275c0-.668.985-.668.985 0v1.275h1.367v-1.275c0-.668.984-.668.984 0v1.275h1.913a3.42 3.42 0 0 0 2.44-1.03 3.546 3.546 0 0 0 1.01-2.484c0-.932-.363-1.826-1.01-2.486a3.42 3.42 0 0 0-2.44-1.029zm-.985-1.002v-2.595H7.67v2.595zM20.32 11.92h-7v3.477h7zm-8.533-2.973L8.97 12.753a.497.497 0 0 1-.394.198h-5.81v5.419H20.32V16.4h-7.492a.498.498 0 0 1-.493-.502v-4.48c0-.276.221-.5.493-.5h7.492V8.947zm7.833-5.702l-.76-1.862-3.015 3.073 1.829.77zm12.583-.381V1.002H19.772l.756 1.862zM25.945 20.38h.796v-.226c0-.516-.319-.976-.796-1.149zm9.07 1.003h-8.701l.827 1.432.579 1.002.827 1.432h6.469zm0-17.517h-1.828V20.38h1.829zm0-2.864h-1.828v1.862h1.829z"/>
        </g>
    </g>
</svg>