<svg xmlns="http://www.w3.org/2000/svg" width="34" height="34" viewBox="0 0 34 34">
    <g>
        <g>
            <path fill="#6c6c6c"
                  d="M4.364 27.34c-1.714.068-2.696 1.416-2.696 2.718 0 1.44 1.188 2.742 2.696 2.742H23.17c.137-.023.297-.045.457-.068 1.097-.114 2.102-1.348 2.171-2.102 0-.092.046-.275.046-.32v-.48a1.348 1.348 0 0 1-.046-.32c-.023-.685-1.051-1.897-1.805-2.034-.114-.022-.251-.068-.366-.091-.114-.023-.297-.023-.457-.046zm6.604-15.824v10.42h8.774V20.29c0-.605-.492-1.097-1.097-1.097H13.71a1.647 1.647 0 0 1-1.646-1.645v-4.387c0-.907.738-1.645 1.646-1.645h5.54a4.9 4.9 0 0 0-2.25-.548h-5.484a.549.549 0 0 0-.548.548zm6.502-6.203L17.06 6.96l.581.582c.31-.312.667-.583 1.077-.788l2.373-1.187-.042-.083h-1.306a.55.55 0 0 1-.491-.303l-.303-.607zm11.178-3.605L19.98 4.185l.1.202h1.307a.55.55 0 0 1 .491.303l.193.387 6.545-3.272zm3.368 26.26l.548-1.097h-2.612l.548 1.097zm-.758 4.495l.548-.823v-2.576H30.71v2.576zm-1.645-10.528v3.84h3.29v-4.388h-2.742a.549.549 0 0 0-.548.548zm3.29-1.645v-1.097h-.942l.274 1.097zm-1.216-2.193h1.216V5.573l-1.27-3.81a.972.972 0 0 0-1.847 0L28.54 5.506zM27.447 5.31l.679-2.034-8.92 4.459a2.98 2.98 0 0 0-1.608 2.166 6.004 6.004 0 0 1 3.293 1.4l6.575-5.564-.03-.121a.546.546 0 0 1 .011-.306zm-5.512 10.592a4.907 4.907 0 0 0-1.267-3.29H13.71a.549.549 0 0 0-.549.548v4.387c0 .303.247.549.549.549h4.935c1.21 0 2.194.984 2.194 2.193v1.645h1.096zm1.097 7.678a.549.549 0 0 0-.548-.549H10.968v1.097h11.516a.549.549 0 0 0 .548-.548zM7.13 26.243v-1.017H1.645A1.647 1.647 0 0 1 0 23.58v-1.646a3.294 3.294 0 0 1 3.29-3.29h6.58v-7.129c0-.907.739-1.645 1.646-1.645h4.973a4.068 4.068 0 0 1 .485-1.444l-.91-.91a.546.546 0 0 1-.145-.52l.549-2.194a.55.55 0 0 1 .286-.358l2.194-1.097c.03-.016.065-.017.097-.026l-.003-.01L29.703.265a2.064 2.064 0 0 1 2.97 1.15l1.299 3.896a.548.548 0 0 1 .028.173v20.839a.532.532 0 0 1-.063.242l.005.003-1.039 2.077v3.161a.551.551 0 0 1-.092.305l-1.097 1.645a.55.55 0 0 1-.912 0l-1.097-1.645a.55.55 0 0 1-.092-.305v-3.16l-1.04-2.078.006-.003a.539.539 0 0 1-.063-.242v-4.388c0-.907.738-1.645 1.645-1.645h.943L27.763 6.924l-6.099 5.16a6.002 6.002 0 0 1 1.368 3.82v6.132c.637.228 1.097.83 1.097 1.545 0 .907-.738 1.645-1.645 1.645H20.29v1.017h3.13c2.308.205 3.542 2.125 3.542 3.815 0 1.668-1.188 3.588-3.496 3.84H4.067c-.228 0-1.028-.252-1.097-.275-1.713-.686-2.422-2.285-2.422-3.565 0-1.69 1.234-3.61 3.565-3.815zm12.065 0v-1.017H8.226v1.017zM1.097 23.58c0 .302.246.548.548.548h8.226v-4.387H3.29c-1.21 0-2.194.984-2.194 2.193z"/>
        </g>
    </g>
</svg>