<?xml version="1.0" encoding="utf-8"?>
<!-- Generator: Adobe Illustrator 28.1.0, SVG Export Plug-In . SVG Version: 6.00 Build 0)  -->
<svg version="1.1" id="Слой_1" xmlns="http://www.w3.org/2000/svg" xmlns:xlink="http://www.w3.org/1999/xlink" x="0px" y="0px"
	 viewBox="0 0 34 34" style="enable-background:new 0 0 34 34;" xml:space="preserve">
<style type="text/css">
	.st0{fill:#6C6C6C;}
</style>
<g>
	<g>
		<path class="st0" d="M17.1,4.3h8.3c0.5-0.2,1-0.4,1.6-0.4c0.5,0,1,0.1,1.4,0.3h0.1c0.3,0,0.7,0,0.9,0.1c0.3-0.1,0.5-0.2,0.8-0.2
			V0.5C30.2,0.2,30,0,29.8,0H15.9c-0.1,0-0.3,0.1-0.3,0.1l-3.4,4.5c-0.1,0.1-0.1,0.2-0.1,0.4v3.6H9.6c-0.2,0-0.3,0.1-0.3,0.2L7,13.1
			h-5c-0.3,0-0.4,0.2-0.4,0.5v7c0,0.3,0.2,0.5,0.4,0.5h3.7v3H3.7c-1,0-1.9,0.5-2.6,1.4c-0.7,1-1.1,2.2-1.1,3.5s0.4,2.5,1.1,3.5
			C1.8,33.5,2.8,34,3.7,34h11.9c1,0,1.9-0.5,2.6-1.4c0.7-1,1.1-2.2,1.1-3.5s-0.4-2.5-1.1-3.5c-0.7-0.9-1.7-1.4-2.6-1.4h-1.8v-2.9
			h3.7c0.3,0,0.4-0.2,0.4-0.5V9.2c0-0.3-0.2-0.5-0.4-0.5h-2.1V6.6L17.1,4.3z M27.9,1.1h1.5v2.1h-1.5V1.1z M27,1.1v2.1h-9.8l-0.6-2.1
			H27z M13,5.9l1.5,0.9v2H13L13,5.9z M13.8,26.4v-1.2h1.8c0.8,0,1.5,0.4,2,1.1c0.5,0.8,0.8,1.8,0.8,2.7s-0.3,2-0.8,2.7
			c-0.5,0.8-1.3,1.1-2,1.1H14v-1.4c0-0.8-0.8-0.8-0.8,0v1.4H12v-1.4c0-0.8-0.8-0.8-0.8,0v1.4h-1.1v-1.4c0-0.8-0.8-0.8-0.8,0v1.4H8.1
			v-1.4c0-0.8-0.8-0.8-0.8,0v1.4H6.1v-1.4c0-0.8-0.8-0.8-0.8,0v1.4H3.7c-0.8,0-1.5-0.4-2-1.1c-0.5-0.8-0.8-1.8-0.8-2.7
			s0.3-2,0.8-2.7c0.5-0.8,1.3-1.1,2-1.1h1.8v1.2c0,0.8,0.8,0.8,0.8,0v-1.2h1v1.2c0,0.8,0.8,0.8,0.8,0v-1.2h1v1.2
			c0,0.8,0.8,0.8,0.8,0v-1.2h1v1.2c0,0.8,0.8,0.8,0.8,0v-1.2h1v1.2C12.9,27.2,13.8,27.2,13.8,26.4z M6.5,24.1v-2.9h6.5v2.9H6.5z
			 M17,16.9h-5.9v-3.8H17V16.9z M17,9.8V12h-6.3c-0.3,0-0.4,0.2-0.4,0.5v4.9c0,0.3,0.2,0.5,0.4,0.5H17v2.2H2.3v-5.9h4.9
			c0.2,0,0.3-0.1,0.3-0.2l2.3-4.2H17V9.8z M14.9,5.7l-1.5-0.9l2.5-3.4l0.7,2.1L14.9,5.7z"/>
	</g>
</g>
<g>
	<path class="st0" d="M24.8,7.7c0.2,1,0.9,1.6,1.7,1.6h1.2v4.3c0,0.8,0.5,1.4,1.2,1.4v5.8c-1.7,0.2-2.8,1.4-2.8,2.9
		c0,1.4,1.2,2.6,2.8,2.9v5.8c0,0,0,0,0,0.1c0,0.4,0.3,0.7,0.6,0.7c0.4,0,0.5-0.3,0.5-0.8v-1.4c1.7-0.2,2.8-1.4,2.8-2.9
		c0-1.4-1.2-2.6-2.8-2.9v-3c1.7-0.2,2.8-1.4,2.8-2.9c0-1.4-1.2-2.6-2.8-2.9v-1.4c0.6,0,1.2-0.7,1.2-1.4V9.4h1.2c1,0,1.8-1,1.8-2.2
		V5.8c0-1.2-0.8-2.2-1.8-2.2h-2.3l0,0h-0.1c-0.2,0-0.4,0-0.5,0c-0.2,0-0.4,0-0.4,0l0,0h-1.8l0,0H27c-0.1,0-0.1,0-0.2,0l0,0
		c-0.1,0-0.2,0-0.2,0c-0.1,0-0.2,0-0.3,0l0,0c-0.1,0.1-0.2,0.1-0.4,0.1l0,0c-0.6,0.3-1.1,1-1.2,1.9 M28.8,25.1
		c-1-0.2-1.8-0.8-1.8-1.4c0-0.5,0.7-1.2,1.8-1.4V25.1z M31.7,28c0,0.5-0.7,1.2-1.8,1.4v-2.7C31,26.8,31.7,27.4,31.7,28z M31.7,19.4
		c0,0.5-0.7,1.2-1.8,1.4v-2.7C31,18.2,31.7,18.9,31.7,19.4z M29.9,13.7h-1.2V9.4h1.2V13.7z M32.9,7.2c0,0.4-0.3,0.8-0.6,0.8h-5.8
		c-0.4,0-0.5-0.3-0.5-0.8V5.8c0-0.4,0.3-0.8,0.5-0.8h5.8c0.4,0,0.6,0.3,0.6,0.8V7.2z"/>
</g>
</svg>
