<?xml version="1.0" encoding="utf-8"?>
<!-- Generator: Adobe Illustrator 28.1.0, SVG Export Plug-In . SVG Version: 6.00 Build 0)  -->
<svg version="1.1" id="Слой_1" xmlns="http://www.w3.org/2000/svg" xmlns:xlink="http://www.w3.org/1999/xlink" x="0px" y="0px"
	 viewBox="0 0 34 34.1" style="enable-background:new 0 0 34 34.1;" xml:space="preserve">
<style type="text/css">
	.st0{fill:#6C6C6C;}
</style>
<g>
	<g>
		<path class="st0" d="M33.5,0.1c0.3,0,0.5,0.2,0.5,0.5l0,0v27.8c0,0.3-0.2,0.5-0.5,0.5h-6.8c-0.2,0-0.3-0.1-0.4-0.2l-2.7-5.5
			c0-0.1-0.1-0.2-0.1-0.3v-2.6c0-0.3,0.2-0.5,0.5-0.5h0.1c1.1,0,2.1,1.1,2.1,2.4v0.2h4.3v-18H19.3l-2,2.3v2.1h2.4
			c0.3,0,0.5,0.2,0.5,0.5v11.4c0,0.3-0.2,0.5-0.5,0.5h-4.2v3h2.1c1.1,0,2.2,0.5,2.9,1.4c0.8,1,1.2,2.2,1.2,3.5
			c0,1.3-0.5,2.5-1.2,3.5c-0.8,0.9-1.9,1.4-2.9,1.4H4.2c-1.1,0-2.2-0.5-2.9-1.4c-0.8-1-1.2-2.2-1.2-3.5c0-1.3,0.5-2.5,1.2-3.5
			c0.8-0.9,1.9-1.4,2.9-1.4h2.1v-2.9H2.2c-0.3,0-0.5-0.2-0.5-0.5v-7c0-0.3,0.2-0.5,0.5-0.5h5.8l2.6-4.2C10.7,9,10.8,8.9,11,8.9h2.7
			V5.1c0-0.1,0.1-0.3,0.1-0.4l3.9-4.5c0.1,0,0.2-0.1,0.3-0.1H33.5z M14.6,8.8h1.7V6.9L14.6,6L14.6,8.8z M15.5,25.3v1.2
			c0,0.8-0.9,0.8-0.9,0v-1.2h-1.1v1.2c0,0.8-0.9,0.8-0.9,0v-1.2h-1.1v1.2c0,0.8-0.9,0.8-0.9,0v-1.2h-1v1.2c0,0.8-0.9,0.8-0.9,0v-1.2
			H7.3v1.2c0,0.8-0.9,0.8-0.9,0v-1.2H4.2c-0.9,0-1.7,0.4-2.3,1.1c-0.6,0.8-0.9,1.8-0.9,2.7c0,1,0.4,2,0.9,2.7S3.3,33,4.2,33H6v-1.4
			c0-0.8,0.9-0.8,0.9,0V33h1.3v-1.4c0-0.8,0.9-0.8,0.9,0V33h1.3v-1.4c0-0.8,0.9-0.8,0.9,0V33h1.3v-1.4c0-0.8,0.9-0.8,0.9,0V33H15
			v-1.4c0-0.8,0.9-0.8,0.9,0V33h1.8c0.9,0,1.7-0.4,2.3-1.1c0.6-0.8,0.9-1.8,0.9-2.7c0-1-0.4-2-0.9-2.7c-0.6-0.8-1.4-1.1-2.3-1.1
			H15.5z M14.6,24.2v-2.9H7.3v2.9H14.6z M19.2,13.2h-6.6V17h6.6V13.2z M11.1,9.9l-2.6,4.3c-0.1,0.1-0.3,0.2-0.4,0.2H2.6v5.9h16.6
			v-2.2h-7.1c-0.3,0-0.5-0.2-0.5-0.5v-4.9c0-0.3,0.2-0.5,0.5-0.5h7.1V9.9H11.1z M18.5,3.6l-0.8-2.1l-2.8,3.4l1.7,0.9L18.5,3.6z
			 M30.4,3.3V1.2H18.7l0.8,2.1H30.4z M24.5,22.5h0.8v-0.2c0-0.5-0.3-1.1-0.8-1.2V22.5z M33.1,23.6h-8.2l0.8,1.5l0.6,1.1l0.8,1.5h6.1
			V23.6z M33.1,4.4h-1.7v18.1h1.7V4.4z M33.1,1.2h-1.7v2.1h1.7V1.2z"/>
	</g>
</g>
</svg>
