<?xml version="1.0" encoding="utf-8"?>
<!-- Generator: Adobe Illustrator 28.1.0, SVG Export Plug-In . SVG Version: 6.00 Build 0)  -->
<svg version="1.1" id="Слой_1" xmlns="http://www.w3.org/2000/svg" xmlns:xlink="http://www.w3.org/1999/xlink" x="0px" y="0px"
	 viewBox="0 0 34 34" style="enable-background:new 0 0 34 34;" xml:space="preserve">
<style type="text/css">
	.st0{fill:#6C6C6C;}
</style>
<g>
	<g>
		<path class="st0" d="M4.4,27.3c-1.7,0.1-2.7,1.4-2.7,2.7c0,1.4,1.2,2.7,2.7,2.7h18.8c0.1,0,0.3,0,0.5-0.1c1.1-0.1,2.1-1.3,2.2-2.1
			c0-0.1,0-0.3,0-0.3v-0.5c0-0.1,0-0.2,0-0.3c0-0.7-1.1-1.9-1.8-2c-0.1,0-0.3-0.1-0.4-0.1c-0.1,0-0.3,0-0.5,0L4.4,27.3z M11,11.5
			v10.4h8.8v-1.6c0-0.6-0.5-1.1-1.1-1.1h-4.9c-0.9,0-1.6-0.7-1.6-1.6v-4.4c0-0.9,0.7-1.6,1.6-1.6h5.5C18.6,11.2,17.8,11,17,11h-5.5
			C11.2,11,11,11.2,11,11.5z M17.5,5.3L17.1,7l0.6,0.6C18,7.2,18.3,7,18.7,6.8l2.4-1.2l0-0.1h-1.3c-0.2,0-0.4-0.1-0.5-0.3l-0.3-0.6
			L17.5,5.3z M28.6,1.7L20,4.2l0.1,0.2h1.3c0.2,0,0.4,0.1,0.5,0.3l0.2,0.4L28.6,1.7L28.6,1.7z M32,28l0.5-1.1H30l0.5,1.1H32z
			 M31.3,32.5l0.5-0.8v-2.6h-1.1v2.6L31.3,32.5z M29.6,21.9v3.8h3.3v-4.4h-2.7C29.9,21.4,29.6,21.6,29.6,21.9z M32.9,20.3v-1.1H32
			l0.3,1.1H32.9z M31.7,18.1h1.2V5.6l-1.3-3.8c-0.2-0.5-0.7-0.8-1.2-0.6c-0.3,0.1-0.5,0.3-0.6,0.6l-1.2,3.7L31.7,18.1z M27.4,5.3
			l0.7-2l-8.9,4.5c-0.9,0.4-1.4,1.2-1.6,2.2c1.2,0.1,2.4,0.6,3.3,1.4l6.6-5.6l0-0.1C27.4,5.5,27.4,5.4,27.4,5.3z M21.9,15.9
			c0-1.2-0.5-2.4-1.3-3.3h-7c-0.3,0-0.5,0.2-0.5,0.5v4.4c0,0.3,0.2,0.5,0.5,0.5h4.9c1.2,0,2.2,1,2.2,2.2v1.6h1.1V15.9z M23,23.6
			c0-0.3-0.2-0.5-0.5-0.5H11v1.1h11.5C22.8,24.1,23,23.9,23,23.6z M7.1,26.2v-1H1.6c-0.9,0-1.6-0.7-1.6-1.6v-1.6
			c0-1.8,1.5-3.3,3.3-3.3h6.6v-7.1c0-0.9,0.7-1.6,1.6-1.6h5c0.1-0.5,0.2-1,0.5-1.4l-0.9-0.9c-0.1-0.1-0.2-0.3-0.1-0.5l0.5-2.2
			c0-0.2,0.1-0.3,0.3-0.4l2.2-1.1c0,0,0.1,0,0.1,0l0,0l10.7-3c1-0.6,2.3-0.2,2.8,0.8c0.1,0.1,0.1,0.2,0.2,0.4L34,5.3
			c0,0.1,0,0.1,0,0.2v20.8c0,0.1,0,0.2-0.1,0.2l0,0l-1,2.1v3.2c0,0.1,0,0.2-0.1,0.3l-1.1,1.6c-0.2,0.3-0.5,0.3-0.8,0.1
			c-0.1,0-0.1-0.1-0.1-0.1l-1.1-1.6c-0.1-0.1-0.1-0.2-0.1-0.3v-3.2l-1-2.1l0,0c0-0.1-0.1-0.2-0.1-0.2v-4.4c0-0.9,0.7-1.6,1.6-1.6
			h0.9L27.8,6.9l-6.1,5.2c0.9,1.1,1.4,2.4,1.4,3.8V22c0.6,0.2,1.1,0.8,1.1,1.5c0,0.9-0.7,1.6-1.6,1.6h-2.2v1h3.1
			c2.3,0.2,3.5,2.1,3.5,3.8c0,1.7-1.2,3.6-3.5,3.8H4.1c-0.2,0-1-0.3-1.1-0.3c-1.7-0.7-2.4-2.3-2.4-3.6c0-1.7,1.2-3.6,3.6-3.8
			L7.1,26.2z M19.2,26.2v-1h-11v1H19.2z M1.1,23.6c0,0.3,0.2,0.5,0.5,0.5h8.2v-4.4H3.3c-1.2,0-2.2,1-2.2,2.2L1.1,23.6z"/>
	</g>
</g>
</svg>
