<?xml version="1.0" encoding="UTF-8"?>
<svg xmlns="http://www.w3.org/2000/svg" xmlns:xlink="http://www.w3.org/1999/xlink" width="84px" height="100px" viewBox="0 0 84 100" version="1.1">
<g id="surface1">
<path style=" stroke:none;fill-rule:evenodd;fill:rgb(100%,100%,100%);fill-opacity:1;" d="M 0 15.972656 L 42 0 L 84 15.972656 L 42 2.457031 Z M 0 80.351562 L 42 100.011719 L 84 79.125 L 42 97.554688 Z M 0 80.351562 "/>
<path style=" stroke:none;fill-rule:nonzero;fill:rgb(100%,100%,100%);fill-opacity:1;" d="M 38.285156 52.460938 C 38.089844 52.410156 37.976562 52.207031 38.027344 52.011719 C 38.03125 52 38.035156 51.988281 38.039062 51.976562 C 37.820312 51.867188 37.628906 51.71875 37.46875 51.535156 C 37.457031 51.542969 37.449219 51.550781 37.4375 51.554688 C 37.269531 51.660156 37.046875 51.605469 36.945312 51.429688 C 36.804688 51.1875 36.707031 50.917969 36.660156 50.628906 L 35.410156 50.628906 L 35.410156 52.21875 L 33.167969 52.21875 L 34.128906 51.265625 L 34.128906 48.082031 L 35.410156 48.082031 L 35.410156 49.671875 L 36.636719 49.671875 C 36.636719 49.652344 36.636719 49.628906 36.636719 49.605469 C 36.691406 48.992188 36.976562 48.453125 37.402344 48.074219 C 37.554688 47.941406 37.78125 47.960938 37.910156 48.117188 C 37.917969 48.125 37.925781 48.136719 37.933594 48.144531 C 38.136719 48.023438 38.367188 47.945312 38.609375 47.910156 C 38.609375 47.90625 38.609375 47.902344 38.609375 47.894531 C 38.609375 47.691406 38.769531 47.523438 38.96875 47.523438 L 40.40625 47.523438 C 40.605469 47.523438 40.765625 47.691406 40.765625 47.894531 L 41.484375 47.894531 C 41.484375 47.691406 41.644531 47.523438 41.84375 47.523438 L 43.28125 47.523438 C 43.480469 47.523438 43.640625 47.691406 43.640625 47.894531 L 44.359375 47.894531 C 44.359375 47.691406 44.519531 47.523438 44.71875 47.523438 L 46.15625 47.523438 C 46.355469 47.523438 46.515625 47.691406 46.515625 47.894531 L 47.234375 47.894531 C 47.234375 47.691406 47.394531 47.523438 47.59375 47.523438 L 49.03125 47.523438 C 49.230469 47.523438 49.390625 47.691406 49.390625 47.894531 L 50.109375 47.894531 C 50.109375 47.691406 50.269531 47.523438 50.46875 47.523438 L 51.90625 47.523438 C 52.105469 47.523438 52.265625 47.691406 52.265625 47.894531 L 52.984375 47.894531 C 52.984375 47.691406 53.144531 47.523438 53.34375 47.523438 L 54.78125 47.523438 C 54.980469 47.523438 55.140625 47.691406 55.140625 47.894531 C 55.140625 47.898438 55.140625 47.902344 55.140625 47.90625 C 55.382812 47.933594 55.613281 48.011719 55.820312 48.125 C 55.828125 48.117188 55.835938 48.105469 55.84375 48.097656 C 55.96875 47.941406 56.195312 47.917969 56.347656 48.046875 C 56.78125 48.414062 57.078125 48.953125 57.144531 49.5625 C 57.164062 49.761719 57.023438 49.945312 56.824219 49.96875 C 56.816406 49.96875 56.804688 49.96875 56.796875 49.96875 L 56.796875 50.253906 C 56.796875 50.410156 56.78125 50.558594 56.746094 50.703125 C 56.757812 50.707031 56.765625 50.714844 56.777344 50.71875 C 56.957031 50.804688 57.035156 51.023438 56.953125 51.207031 C 56.710938 51.746094 56.273438 52.171875 55.734375 52.386719 C 55.550781 52.460938 55.339844 52.363281 55.269531 52.171875 C 55.265625 52.164062 55.261719 52.152344 55.257812 52.140625 C 55.152344 52.160156 55.046875 52.167969 54.9375 52.167969 L 54.542969 52.167969 C 54.542969 52.371094 54.378906 52.539062 54.183594 52.539062 L 52.746094 52.539062 C 52.546875 52.539062 52.386719 52.371094 52.386719 52.167969 L 51.667969 52.167969 C 51.667969 52.371094 51.503906 52.539062 51.308594 52.539062 L 49.871094 52.539062 C 49.671875 52.539062 49.511719 52.371094 49.511719 52.167969 L 48.792969 52.167969 C 48.792969 52.371094 48.628906 52.539062 48.433594 52.539062 L 46.996094 52.539062 C 46.796875 52.539062 46.636719 52.371094 46.636719 52.167969 L 45.917969 52.167969 C 45.917969 52.371094 45.753906 52.539062 45.558594 52.539062 L 44.121094 52.539062 C 43.921875 52.539062 43.761719 52.371094 43.761719 52.167969 L 43.042969 52.167969 C 43.042969 52.371094 42.878906 52.539062 42.683594 52.539062 L 41.246094 52.539062 C 41.046875 52.539062 40.886719 52.371094 40.886719 52.167969 L 40.167969 52.167969 C 40.167969 52.371094 40.003906 52.539062 39.808594 52.539062 L 38.851562 52.539062 C 38.652344 52.539062 38.464844 52.511719 38.285156 52.460938 Z M 56.066406 50.03125 C 56.066406 49.242188 55.410156 48.597656 54.601562 48.597656 L 39.175781 48.597656 C 38.367188 48.597656 37.707031 49.242188 37.707031 50.03125 C 37.707031 50.820312 38.367188 51.464844 39.175781 51.464844 L 54.601562 51.464844 C 55.410156 51.464844 56.066406 50.820312 56.066406 50.03125 Z M 36.988281 46.808594 L 36.988281 37.339844 L 35.328125 33.160156 L 31.191406 29.046875 L 31.191406 39.910156 L 30.859375 40.242188 L 30.859375 41.015625 L 32.769531 44.851562 L 33.511719 44.851562 L 34.902344 45.988281 L 34.902344 46.03125 L 30.503906 46.03125 C 28.609375 46.03125 27.070312 44.5 27.070312 42.617188 L 27.070312 42.542969 C 27.070312 41.261719 27.78125 40.144531 28.832031 39.5625 L 28.832031 28.710938 L 27.886719 25.664062 L 29.066406 23.078125 L 30.023438 23.078125 L 31.203125 25.40625 L 31.203125 25.5 L 39.59375 33.84375 L 39.519531 33.917969 L 39.519531 44.660156 L 41.308594 44.660156 L 41.308594 43.945312 L 54.625 43.945312 L 54.625 46.808594 Z M 55.347656 46.808594 L 55.347656 43.945312 L 56.476562 43.945312 C 56.839844 43.945312 57.128906 44.21875 57.128906 44.550781 L 57.128906 46.203125 C 57.128906 46.535156 56.839844 46.808594 56.476562 46.808594 Z M 41.308594 43.230469 L 41.308594 33.492188 C 41.308594 31.949219 42.578125 30.699219 44.144531 30.699219 L 52.464844 30.699219 L 52.464844 33.484375 C 52.464844 33.488281 52.464844 33.492188 52.464844 33.492188 L 52.464844 38.21875 L 50.667969 38.21875 L 50.488281 38.335938 C 48.867188 39.394531 47.789062 41.175781 47.789062 43.203125 L 47.789062 43.230469 Z M 48.507812 43.203125 C 48.507812 41.4375 49.449219 39.875 50.886719 38.933594 L 54.625 38.933594 L 54.625 43.230469 L 48.507812 43.230469 C 48.507812 43.222656 48.507812 43.214844 48.507812 43.203125 Z M 46.4375 42.511719 L 46.4375 31.414062 L 43.996094 31.414062 C 42.910156 31.414062 42.027344 32.292969 42.027344 33.375 L 42.027344 42.511719 Z M 30.414062 39.457031 C 30.414062 39.207031 30.210938 39.003906 29.957031 39.003906 C 29.707031 39.003906 29.5 39.207031 29.5 39.457031 C 29.5 39.707031 29.707031 39.910156 29.957031 39.910156 C 30.210938 39.910156 30.414062 39.707031 30.414062 39.457031 Z M 51.386719 37.066406 L 51.386719 31.414062 L 48.324219 31.414062 L 48.324219 37.066406 Z M 38.78125 34.820312 C 38.78125 34.484375 38.507812 34.210938 38.167969 34.210938 C 37.832031 34.210938 37.554688 34.484375 37.554688 34.820312 C 37.554688 35.15625 37.832031 35.433594 38.167969 35.433594 C 38.507812 35.433594 38.78125 35.15625 38.78125 34.820312 Z M 38.78125 34.820312 "/>
<path style=" stroke:none;fill-rule:nonzero;fill:rgb(100%,100%,100%);fill-opacity:1;" d="M 10.433594 59.65625 L 13.84375 59.65625 L 13.84375 74.15625 L 11.925781 74.15625 L 11.925781 62.683594 L 10.105469 74.199219 L 9.351562 74.199219 L 9.167969 74.15625 L 9.003906 74.199219 L 8.25 74.199219 L 6.453125 62.683594 L 6.453125 74.15625 L 4.511719 74.15625 L 4.511719 59.65625 L 7.941406 59.65625 L 9.1875 67.859375 Z M 17.839844 59.65625 L 17.839844 74.117188 L 15.898438 74.117188 L 15.898438 59.65625 Z M 24.632812 70.867188 L 24.714844 59.617188 L 26.675781 59.617188 L 26.550781 74.277344 L 23.511719 74.277344 L 21.855469 62.925781 L 21.855469 74.277344 L 19.894531 74.277344 L 19.894531 59.617188 L 23.0625 59.617188 Z M 30.671875 59.65625 L 30.671875 74.117188 L 28.730469 74.117188 L 28.730469 59.65625 Z M 38.160156 74.199219 L 37.425781 69.179688 L 35.363281 69.179688 L 34.6875 74.199219 L 32.726562 74.199219 L 34.933594 59.675781 L 37.566406 59.675781 L 40.121094 74.199219 Z M 35.628906 67.25 L 37.136719 67.25 L 36.363281 61.972656 Z M 47.484375 74.238281 L 45.402344 74.238281 L 44.277344 71.171875 L 43.828125 71.171875 L 43.828125 74.238281 L 41.890625 74.238281 L 41.890625 59.695312 L 44.933594 59.695312 C 46.28125 59.695312 47.363281 60.773438 47.363281 62.113281 L 47.363281 68.753906 C 47.363281 69.628906 46.914062 70.378906 46.21875 70.804688 Z M 43.828125 61.625 L 43.828125 69.242188 L 44.933594 69.242188 C 45.199219 69.242188 45.421875 69.019531 45.421875 68.753906 L 45.421875 62.113281 C 45.421875 61.847656 45.199219 61.625 44.933594 61.625 Z M 54.300781 66.539062 L 51.480469 66.539062 L 51.480469 72.269531 L 54.320312 72.269531 L 54.320312 74.199219 L 49.542969 74.199219 L 49.542969 59.695312 L 54.320312 59.695312 L 54.320312 61.625 L 51.480469 61.625 L 51.480469 64.613281 L 54.300781 64.613281 Z M 61.113281 70.867188 L 61.195312 59.617188 L 63.15625 59.617188 L 63.03125 74.277344 L 59.988281 74.277344 L 58.335938 62.925781 L 58.335938 74.277344 L 56.375 74.277344 L 56.375 59.617188 L 59.539062 59.617188 Z M 67.765625 74.21875 L 65.210938 74.21875 L 65.210938 59.738281 L 67.765625 59.738281 C 69.5 59.738281 70.886719 61.136719 70.886719 62.863281 L 70.886719 71.089844 C 70.886719 71.921875 70.5625 72.714844 69.96875 73.304688 C 69.378906 73.894531 68.601562 74.21875 67.765625 74.21875 Z M 67.152344 61.6875 L 67.152344 72.269531 L 67.765625 72.269531 C 68.070312 72.269531 68.375 72.144531 68.601562 71.921875 C 68.824219 71.699219 68.949219 71.414062 68.949219 71.089844 L 68.949219 62.863281 C 68.949219 62.214844 68.417969 61.6875 67.765625 61.6875 Z M 77.742188 74.199219 L 77.007812 69.179688 L 74.945312 69.179688 L 74.273438 74.199219 L 72.3125 74.199219 L 74.515625 59.675781 L 77.152344 59.675781 L 79.703125 74.199219 Z M 75.210938 67.25 L 76.722656 67.25 L 75.945312 61.972656 Z M 75.210938 67.25 "/>
</g>
</svg>
